<svg width="35" height="35" viewBox="0 0 35 35" fill="none" xmlns="http://www.w3.org/2000/svg">
<path d="M34.1266 6.0784C32.983 4.44341 30.8827 3.30349 29.3077 2.97153C29.2514 2.92053 29.1947 2.86974 29.1358 2.82025C27.2788 1.25977 24.549 0.845707 22.6495 0.961853C22.1118 0.54738 21.4919 0.263204 20.7912 0.115202C18.224 -0.427379 15.2094 1.027 13.2578 2.53552C12.8655 2.38157 12.4387 2.32921 11.9738 2.37768C9.37085 2.64914 7.16559 3.6723 5.41924 5.41858C3.67289 7.165 2.64973 9.37025 2.37834 11.9731C2.32987 12.4381 2.38217 12.8649 2.53605 13.2571C1.02712 15.2094 -0.425894 18.2219 0.115456 20.7891C0.263321 21.4904 0.547634 22.1108 0.96238 22.6489C0.846235 24.5469 1.26194 27.2846 2.82535 29.1407C2.87334 29.1977 2.92263 29.2524 2.97206 29.307C3.30415 30.8825 4.44633 32.9858 6.08228 34.1283C6.90685 34.7042 7.80162 34.9993 8.70617 34.9993C8.95884 34.9993 9.21225 34.9763 9.46512 34.9299C10.2812 34.7803 11.3446 34.1778 11.7756 32.1569C12.0479 30.8801 11.9689 29.5224 11.8995 28.8384C12.4146 27.7609 12.8228 25.8618 12.9597 25.1758C13.0843 25.0872 13.2035 24.994 13.3175 24.8939C14.1089 24.1993 15.0856 22.6259 15.3648 20.3995C16.5217 20.199 17.5921 19.6005 18.5966 18.596C19.6015 17.5911 20.2009 16.5202 20.4014 15.3628C22.4943 15.095 24.1445 14.1712 24.8945 13.3169C24.9943 13.2032 25.0874 13.0842 25.1758 12.96C25.8023 12.8351 27.7447 12.4219 28.839 11.8989C29.1579 11.9313 29.6227 11.9657 30.1574 11.9657C30.7703 11.9657 31.475 11.9205 32.1565 11.7752C34.1781 11.3442 34.7808 10.2808 34.9304 9.46452C35.143 8.30505 34.865 7.13423 34.1266 6.0784ZM29.6957 6.66876C29.9153 9.38987 29.1087 10.198 28.3815 10.5981C27.8416 10.895 26.7707 11.198 25.8679 11.4119C25.9752 10.5912 25.8354 9.23298 25.4493 7.35798C25.059 5.46294 24.5116 3.58972 24.118 2.80247C24.0352 2.63683 23.9468 2.47953 23.8544 2.32832C25.3857 2.42314 27.0951 2.8912 28.2561 3.86685C29.1199 4.59285 29.6043 5.53548 29.6957 6.66876ZM2.32933 23.8541C2.4804 23.9465 2.63763 24.0348 2.80314 24.1176C3.59038 24.5112 5.46361 25.0586 7.35864 25.4489C8.8267 25.7512 9.97817 25.9027 10.8029 25.9027C11.0311 25.9027 11.2331 25.8906 11.4111 25.8673C11.2024 26.7445 10.8984 27.8363 10.5987 28.381C10.1986 29.1082 9.39026 29.9148 6.66929 29.6953C5.53785 29.6041 4.59645 29.1212 3.87107 28.26C2.89412 27.0999 2.42476 25.3868 2.32933 23.8541ZM9.21854 33.5851C8.41653 33.732 7.62457 33.5378 6.86508 33.0074C6.05842 32.444 5.38916 31.5689 4.92732 30.6832C5.4325 30.8852 5.97686 31.011 6.5593 31.058C6.87478 31.0834 7.21406 31.1021 7.56496 31.1021C8.57786 31.1021 9.68681 30.9466 10.5938 30.352C10.5616 31.8646 10.2085 33.4036 9.21854 33.5851ZM17.6298 17.6293C16.2432 19.0159 14.7737 19.4109 13.0049 18.8724C12.6438 18.7623 12.2618 18.966 12.1518 19.3272C12.0418 19.6884 12.2455 20.0703 12.6067 20.1802C13.0761 20.3232 13.5319 20.4137 13.9756 20.4531C13.7224 22.0749 13.0213 23.3348 12.4156 23.8664C12.1399 24.1084 11.8164 24.3035 11.3977 24.4802C11.1389 24.5896 9.92314 24.581 7.63434 24.1096C5.87111 23.7464 4.09646 23.2355 3.41456 22.8946C2.31791 22.3463 1.67641 21.5653 1.45321 20.507C1.0574 18.63 2.0809 16.2034 3.3855 14.4033C3.55989 14.5528 3.75657 14.6956 3.97614 14.8319C4.93381 15.4266 5.90597 16.1318 6.84614 16.8139L7.09983 16.9978C7.40554 17.2194 7.83293 17.1511 8.05449 16.8455C8.27605 16.5397 8.20776 16.1123 7.90205 15.8907L7.6489 15.7072C6.68918 15.0109 5.69679 14.2909 4.69728 13.6703C3.82315 13.1276 3.68164 12.656 3.73804 12.1149C3.97607 9.83196 4.86695 7.90425 6.38587 6.38534C7.90471 4.86643 9.83242 3.97555 12.1153 3.73751C12.6564 3.68153 13.128 3.82262 13.6708 4.69669C14.2923 5.69763 15.0133 6.69146 15.7106 7.65248C18.3947 11.3518 20.7126 14.5465 17.6298 17.6293ZM20.4544 13.9752C20.4142 13.5213 20.3204 13.0548 20.1717 12.5741C19.5789 10.6558 18.1751 8.72089 16.8174 6.84972C16.1343 5.90825 15.428 4.93465 14.8325 3.97568C14.6962 3.75611 14.5534 3.55943 14.4039 3.38504C16.2041 2.08065 18.6321 1.05653 20.5087 1.45303C21.5665 1.67643 22.3471 2.31786 22.8952 3.41417C23.2361 4.096 23.7472 5.87072 24.1102 7.63395C24.5816 9.92268 24.5901 11.1385 24.4808 11.3973C24.304 11.8161 24.109 12.1395 23.867 12.4151C23.3322 13.0242 22.0749 13.7225 20.4544 13.9752ZM33.5857 9.21801C33.4042 10.2082 31.8652 10.561 30.3524 10.5932C31.153 9.3721 31.1575 7.78476 31.0586 6.55877C31.0115 5.9762 30.8857 5.43177 30.6837 4.92652C31.5683 5.38768 32.4424 6.05598 33.0062 6.86209C33.5379 7.62226 33.7329 8.41491 33.5857 9.21801Z" fill="#3A1C17"/>
<path d="M19.8827 3.51416H19.8822C19.5047 3.51416 19.1988 3.82027 19.1988 4.19775C19.1988 4.57523 19.5052 4.88134 19.8827 4.88134C20.2603 4.88134 20.5663 4.57523 20.5663 4.19775C20.5663 3.82027 20.2603 3.51416 19.8827 3.51416Z" fill="#3A1C17"/>
<path d="M13.3201 9.18811H13.3197C12.9421 9.18811 12.6363 9.49422 12.6363 9.8717C12.6363 10.2492 12.9426 10.5553 13.3201 10.5553C13.6977 10.5553 14.0037 10.2492 14.0037 9.8717C14.0037 9.49422 13.6976 9.18811 13.3201 9.18811Z" fill="#3A1C17"/>
<path d="M8.26146 8.3678H8.26098C7.88343 8.3678 7.57759 8.67391 7.57759 9.05139C7.57759 9.42887 7.88391 9.73499 8.26146 9.73499C8.63901 9.73499 8.94505 9.42887 8.94505 9.05139C8.94505 8.67391 8.63894 8.3678 8.26146 8.3678Z" fill="#3A1C17"/>
<path d="M5.15045 20.1942H5.14997C4.77242 20.1942 4.46658 20.5003 4.46658 20.8778C4.46658 21.2553 4.7729 21.5614 5.15045 21.5614C5.528 21.5614 5.83404 21.2553 5.83404 20.8778C5.83404 20.5003 5.528 20.1942 5.15045 20.1942Z" fill="#3A1C17"/>
<path d="M7.03096 28.1924C7.40851 28.1924 7.71455 27.8863 7.71455 27.5089C7.71455 27.1314 7.40851 26.8253 7.03096 26.8253H7.03048C6.65293 26.8253 6.34709 27.1314 6.34709 27.5089C6.34709 27.8863 6.65341 28.1924 7.03096 28.1924Z" fill="#3A1C17"/>
<path d="M10.0351 17.506H10.0347C9.6571 17.506 9.35133 17.8122 9.35133 18.1896C9.35133 18.5671 9.65758 18.8732 10.0351 18.8732C10.4127 18.8732 10.7187 18.5671 10.7187 18.1896C10.7187 17.8122 10.4127 17.506 10.0351 17.506Z" fill="#3A1C17"/>
</svg>
