<svg width="40" height="40" viewBox="0 0 40 40" fill="none" xmlns="http://www.w3.org/2000/svg">
<path d="M39.9877 7.2773C39.9888 7.25433 39.9886 7.23129 39.9872 7.20832C39.9794 7.18402 39.9701 7.16027 39.9594 7.13715C39.9212 7.02316 39.8555 6.92027 39.7681 6.83769C39.7354 6.81074 39.7002 6.78699 39.663 6.76684C39.6299 6.74543 39.5949 6.72715 39.5585 6.71215C39.513 6.69777 39.466 6.68832 39.4185 6.68395C39.3902 6.67613 39.3614 6.67035 39.3323 6.66652C39.3252 6.66652 39.3193 6.67035 39.3123 6.67051C39.3048 6.67066 39.2981 6.66738 39.2906 6.66777L15.9884 8.12261C15.9005 6.08457 14.5838 4.30404 12.6609 3.6231C12.7513 3.176 12.942 2.7553 13.2184 2.39249C13.9301 1.62624 14.9578 1.23468 15.999 1.33327C16.3672 1.33327 16.6656 1.03484 16.6656 0.666637C16.6656 0.298436 16.3673 0 15.9991 0C14.2875 0 13.001 0.525388 12.1755 1.56116C11.7683 2.08725 11.4871 2.69959 11.3531 3.35123C11.2356 3.34295 11.1185 3.33326 10.999 3.33326C8.53113 3.33756 6.43497 5.14067 6.062 7.58027C5.40209 6.99246 4.54944 6.66738 3.66569 6.6666C2.02586 6.67113 0.589068 7.76535 0.148601 9.34487C0.0545395 9.45869 0.0018054 9.60096 -0.00100708 9.74862V32.0877C-0.000850831 36.4503 3.88686 39.9998 8.66582 39.9998C8.70558 39.9956 8.74488 39.9877 8.78316 39.9761C8.89808 40.0103 9.02089 40.0077 9.13425 39.9685L39.5342 30.3084C39.5443 30.3052 39.551 30.2972 39.561 30.2936C39.6045 30.2754 39.6459 30.2524 39.6843 30.2251C39.8326 30.1469 39.9364 30.0046 39.9654 29.8395C39.9795 29.7951 39.9887 29.7494 39.9929 29.7031C39.9934 29.6926 39.999 29.6837 39.999 29.673V7.33332C39.9989 7.31339 39.9894 7.29668 39.9877 7.2773ZM7.68278 6.76277C8.2884 5.4802 9.58081 4.66333 10.9992 4.66661C11.0704 4.66661 11.1401 4.67325 11.2103 4.67732C11.2049 5.17138 11.2516 5.66465 11.3494 6.14903C11.4188 6.4516 11.688 6.66629 11.9985 6.6666C12.0488 6.66676 12.0991 6.66105 12.1482 6.64965C12.507 6.56731 12.7312 6.20973 12.6489 5.8509C12.6489 5.8509 12.6489 5.8509 12.6489 5.85083C12.5967 5.57551 12.5645 5.29677 12.5527 5.01685C14.3797 5.8795 15.1613 8.05988 14.2987 9.88682C13.436 11.7138 11.2556 12.4954 9.4287 11.6327C7.60176 10.7701 6.82005 8.58972 7.68278 6.76277ZM7.9991 38.6398C4.2667 38.3364 1.3325 35.5135 1.3325 32.0877V14.078C2.84257 16.3273 5.29826 17.7626 7.9991 17.9745V38.6398ZM8.57472 16.6621C4.74873 16.6151 1.52508 13.6392 1.34953 10.0535C1.35789 9.99455 1.36602 9.93479 1.37977 9.87041C1.60008 8.78261 2.55601 8.0005 3.66592 7.99995C4.66936 8.00214 5.55966 8.64378 5.87912 9.59502C5.94536 9.78862 6.09833 9.94018 6.29255 10.0046C7.21184 12.6045 10.0648 13.967 12.6647 13.0477C14.2731 12.4789 15.4799 11.1284 15.8648 9.46635L34.1377 8.3255L19.1258 13.2194C19.1162 13.2225 19.11 13.2301 19.1007 13.2336C19.0578 13.252 19.017 13.2752 18.979 13.3025C18.8306 13.38 18.7271 13.5225 18.6993 13.6877C18.6849 13.7326 18.6755 13.779 18.6714 13.826C18.671 13.8357 18.6658 13.8438 18.6658 13.8536V17.3334C18.6658 17.7016 18.3674 18.0001 17.9992 18.0001C17.631 18.0001 17.3326 17.7016 17.3326 17.3334V14.7265C17.3326 14.3583 17.0341 14.0598 16.6659 14.0598C16.2977 14.0598 15.9993 14.3584 15.9993 14.7265V31.3332C15.9993 31.7014 15.7009 31.9998 15.3327 31.9998C14.9645 31.9998 14.666 31.7014 14.666 31.3332V15.593C14.6494 15.5251 14.6384 15.4558 14.6331 15.386C14.6301 15.3767 14.6227 15.3705 14.6192 15.3614C14.601 15.3191 14.5784 15.2789 14.5516 15.2415C14.5177 15.1682 14.4616 15.1075 14.3913 15.068C14.3323 15.0106 14.2565 14.9734 14.175 14.9619C14.1265 14.9459 14.0762 14.9357 14.0252 14.9316C14.0162 14.9312 14.0086 14.9264 13.9994 14.9264C13.9647 14.9305 13.9305 14.9373 13.8969 14.9471C13.8619 14.9484 13.827 14.9526 13.7927 14.9596L8.57472 16.6621ZM9.33245 28.4147V25.8166L13.3324 24.5114V27.1095L9.33245 28.4147ZM13.3324 28.5114V31.1109L9.33245 32.4144V29.8165L13.3324 28.5114ZM9.33245 24.4147V17.8166L13.3324 16.5115V23.1096L9.33245 24.4147ZM38.6656 29.1853L9.33245 38.5064V33.8173L13.6522 32.4096C14.2448 33.3394 15.4791 33.6129 16.4089 33.0202C16.9851 32.6529 17.3336 32.0165 17.3324 31.3331V31.2104L38.6656 24.2522V29.1853ZM38.6656 22.849L17.3324 29.8074V27.2105L38.6656 20.2523V22.849ZM38.6656 18.849L17.3324 25.8074V23.2106L38.6656 16.2523V18.849ZM38.6656 14.8491L17.3324 21.8075V19.2104C17.5459 19.2894 17.7715 19.331 17.999 19.3332C19.1031 19.3321 19.9979 18.4373 19.999 17.3333V14.3377L38.6656 8.25206V14.8491H38.6656Z" fill="#3A1C17"/>
</svg>
