<svg width="30" height="29" viewBox="0 0 30 29" fill="none" xmlns="http://www.w3.org/2000/svg">
<path d="M29.8269 5.38512C29.6551 5.139 29.3788 4.98687 29.0786 4.97405L10.4694 4.1719C9.93543 4.14854 9.48924 4.56076 9.46641 5.09221C9.44372 5.62345 9.85527 6.07233 10.3866 6.09515L27.736 6.84305L24.3248 17.4864H9.14429L6.40171 2.55325C6.34143 2.22596 6.11672 1.95292 5.80682 1.83133L1.31494 0.0666596C0.819879 -0.127163 0.261239 0.116005 0.0668122 0.610463C-0.127278 1.10519 0.115822 1.66417 0.610615 1.85859L4.60461 3.42763L7.3956 18.6229C7.47972 19.0797 7.87784 19.4115 8.34249 19.4115H8.80546L7.74826 22.348C7.65978 22.594 7.69623 22.8672 7.84682 23.0809C7.9972 23.2946 8.24178 23.4218 8.50287 23.4218H9.24439C8.78491 23.9332 8.50287 24.6065 8.50287 25.3469C8.50287 26.9393 9.79853 28.2346 11.3905 28.2346C12.9825 28.2346 14.2782 26.9393 14.2782 25.3469C14.2782 24.6065 13.9962 23.9332 13.5367 23.4218H19.8326C19.3729 23.9332 19.0909 24.6065 19.0909 25.3469C19.0909 26.9393 20.3862 28.2346 21.9786 28.2346C23.571 28.2346 24.8662 26.9393 24.8662 25.3469C24.8662 24.6065 24.5843 23.9332 24.1249 23.4218H25.0267C25.4698 23.4218 25.8288 23.0627 25.8288 22.6197C25.8288 22.1766 25.4697 21.8176 25.0267 21.8176H9.64419L10.5104 19.4112H25.0266C25.4452 19.4112 25.8156 19.1408 25.9431 18.7425L29.9538 6.22922C30.0459 5.94363 29.9986 5.63138 29.8269 5.38512ZM11.3906 26.6306C10.6828 26.6306 10.1072 26.0551 10.1072 25.3473C10.1072 24.6394 10.6828 24.0638 11.3906 24.0638C12.0984 24.0638 12.674 24.6394 12.674 25.3473C12.674 26.0551 12.0984 26.6306 11.3906 26.6306ZM21.9786 26.6306C21.2708 26.6306 20.6952 26.0551 20.6952 25.3473C20.6952 24.6394 21.2708 24.0638 21.9786 24.0638C22.6864 24.0638 23.262 24.6394 23.262 25.3473C23.262 26.0551 22.6864 26.6306 21.9786 26.6306Z" fill="#3A1C17"/>
</svg>
