<svg width="35" height="35" viewBox="0 0 35 35" fill="none" xmlns="http://www.w3.org/2000/svg">
<g clip-path="url(#clip0)">
<path d="M26.979 13.8536H6.56182C5.35573 13.8536 4.37427 14.835 4.37427 16.0411V17.4995C4.37427 22.7029 7.24871 27.4222 11.8746 29.8154C12.232 29.9992 12.6723 29.8606 12.8576 29.5018C13.0413 29.1445 12.9028 28.7041 12.544 28.5189C8.40517 26.378 5.83261 22.156 5.83261 17.4994V16.0411C5.83261 15.6386 6.15931 15.3119 6.56182 15.3119H26.979C27.3815 15.3119 27.7082 15.6386 27.7082 16.0411V17.4994C27.7082 22.156 25.1356 26.3779 20.9953 28.5174C20.6366 28.7026 20.498 29.143 20.6818 29.5003C20.8116 29.7511 21.0668 29.8955 21.3307 29.8955C21.4445 29.8955 21.5582 29.8693 21.6647 29.8138C26.2921 27.4221 29.1665 22.7043 29.1665 17.4993V16.041C29.1665 14.835 28.185 13.8536 26.979 13.8536Z" fill="#3A1C17"/>
<path d="M33.4874 28.8864C33.3737 28.6137 33.1082 28.4358 32.8137 28.4358H0.729594C0.435026 28.4358 0.169581 28.6137 0.0558281 28.8864C-0.0579246 29.1591 0.00476244 29.4727 0.213332 29.6813L1.84818 31.3175C2.81365 32.2815 4.09405 32.8124 5.45764 32.8124H28.0827C29.4463 32.8124 30.7282 32.2816 31.6951 31.3175L33.33 29.6813C33.5385 29.4727 33.6012 29.1591 33.4874 28.8864ZM30.6626 30.2865C29.9743 30.9748 29.0569 31.354 28.0842 31.354H5.45764C4.48494 31.354 3.5676 30.9748 2.87927 30.2865L2.48845 29.8956H31.0534L30.6626 30.2865Z" fill="#3A1C17"/>
<path d="M33.5898 17.2968C31.6253 16.0338 28.487 17.4047 28.1354 17.5636C27.7694 17.7313 27.6061 18.163 27.7737 18.5305C27.9414 18.898 28.3717 19.0599 28.7406 18.8922C29.4436 18.5728 31.6982 17.816 32.8007 18.5262C33.2981 18.8455 33.5416 19.4654 33.5416 20.4162C33.5416 23.3358 27.6527 25.1005 25.3791 25.5351L24.8628 25.6371C24.4676 25.7144 24.2109 26.0979 24.2882 26.4932C24.3568 26.8403 24.6615 27.0809 25.0028 27.0809C25.0495 27.0809 25.0961 27.0765 25.1442 27.0663L25.6561 26.9657C26.0382 26.8928 34.9999 25.1355 34.9999 20.4162C35 18.9491 34.5246 17.9005 33.5898 17.2968Z" fill="#3A1C17"/>
<path d="M22.4478 7.74601C23.6335 6.26429 23.6335 3.94405 22.4478 2.46232C22.1955 2.14732 21.7391 2.09482 21.4226 2.34857C21.1076 2.60089 21.0565 3.05877 21.3089 3.37378C22.06 4.31149 22.06 5.89678 21.3074 6.83743C20.1203 8.31915 20.1203 10.6394 21.3074 12.1211C21.4518 12.3019 21.6633 12.3953 21.8776 12.3953C22.0366 12.3953 22.1985 12.3428 22.3326 12.2349C22.6477 11.9825 22.6987 11.5232 22.4464 11.2097C21.6939 10.2719 21.6939 8.68666 22.4478 7.74601Z" fill="#3A1C17"/>
<path d="M18.0669 7.74602C19.254 6.26429 19.254 3.94405 18.0669 2.46233C17.8161 2.14732 17.3567 2.09626 17.0417 2.34858C16.7267 2.6009 16.6756 3.06028 16.928 3.37379C17.6805 4.3115 17.6805 5.89679 16.9265 6.83743C15.7409 8.31916 15.7409 10.6394 16.9265 12.1211C17.0709 12.3019 17.2824 12.3953 17.4967 12.3953C17.6557 12.3953 17.8161 12.3428 17.9517 12.2349C18.2667 11.9826 18.3178 11.5247 18.0655 11.2097C17.3144 10.2719 17.3144 8.68667 18.0669 7.74602Z" fill="#3A1C17"/>
<path d="M13.6977 7.74742C14.8833 6.26569 14.8833 3.94545 13.6977 2.46373C13.4468 2.14872 12.9889 2.09622 12.6724 2.34997C12.3589 2.60079 12.3079 3.06018 12.5587 3.37375C13.3098 4.31146 13.3098 5.89675 12.5573 6.83739C11.3702 8.31912 11.3702 10.6394 12.5573 12.1211C12.7016 12.3019 12.9131 12.3953 13.1275 12.3953C13.2864 12.3953 13.4483 12.3428 13.5825 12.2363C13.8975 11.984 13.9485 11.5246 13.6962 11.2111C12.9437 10.2718 12.9437 8.68806 13.6977 7.74742Z" fill="#3A1C17"/>
</g>
<defs>
<clipPath id="clip0">
<rect width="35" height="35" fill="white"/>
</clipPath>
</defs>
</svg>
