<svg width="29" height="35" viewBox="0 0 29 35" fill="none" xmlns="http://www.w3.org/2000/svg">
<path d="M27.7776 19.8433C27.4991 19.5442 27.1542 19.293 26.7685 19.094C27.2048 16.1936 25.6619 13.3397 22.9056 11.8921C23.491 10.9844 23.6559 9.96253 23.3539 8.98794C23.0094 7.87635 22.1192 6.97408 21.0065 6.56407C21.018 5.40156 20.4708 3.63981 17.9175 1.65064C16.0857 0.22317 15.0629 -0.176729 14.3868 0.269517C14.1404 0.43228 13.7632 0.842843 14.0069 1.76576C14.1184 2.18172 14.1227 2.59802 14.0189 2.90844C13.7472 3.7226 13.2814 4.30788 12.7053 4.77799C12.6152 4.48856 12.4857 4.21006 12.3173 3.94859C11.8288 3.19056 11.0741 2.6683 10.1923 2.47792C9.56855 2.34325 8.93452 2.387 8.34834 2.59666C8.13636 1.9778 8.26494 1.55022 8.57304 1.03227C8.76608 0.707766 8.65958 0.288316 8.33508 0.0952706C8.01065 -0.0978431 7.5912 0.00879671 7.39815 0.333228C6.79461 1.34767 6.71634 2.26751 7.16402 3.32229C6.00384 4.41651 5.7492 6.21974 6.64422 7.60654C6.82852 7.89249 7.05431 8.14555 7.31134 8.36136C6.64874 9.29719 6.30571 10.5879 6.59829 12.5088C6.42582 12.5642 6.26217 12.6199 6.1087 12.6762C4.6718 13.2023 3.55283 14.0672 2.87266 15.1776C2.1819 16.3052 1.98817 17.6363 2.30146 19.0579C1.88693 19.2622 1.51704 19.5263 1.22146 19.8439C0.474909 20.6459 0.288289 21.6874 0.709106 22.7009L4.38332 31.5634C4.95152 32.9314 5.81011 34.9988 8.02801 34.9988H10.6228C10.6323 34.999 10.6418 34.999 10.6514 34.9988H18.3468C18.3516 34.9989 18.3564 34.999 18.3612 34.999C18.366 34.999 18.3708 34.999 18.3756 34.9988H20.9722C23.1901 34.9988 24.0488 32.9314 24.6171 31.563L28.2913 22.7011C28.7118 21.6869 28.5245 20.6453 27.7776 19.8433ZM15.3156 3.34177C15.5361 2.68272 15.4633 2.01663 15.372 1.59541C15.6835 1.74333 16.2165 2.05833 17.0771 2.729C18.8036 4.07403 19.689 5.42042 19.6375 6.62258C19.5894 7.74592 18.7119 8.54531 17.9843 9.01808C16.2834 10.1233 13.0825 10.8841 10.2584 11.5554C9.43989 11.7499 8.64481 11.9389 7.92356 12.1284C7.69524 10.4475 8.05358 9.462 8.76383 8.74677C8.87409 8.65865 8.96965 8.55153 9.08033 8.46232C9.18676 8.37646 9.29723 8.29567 9.4103 8.21883C9.6596 8.04937 9.92141 7.89905 10.1871 7.75707C10.7723 7.44446 11.377 7.17034 11.9642 6.86184C12.8859 6.37772 13.7736 5.79729 14.4313 4.97691C14.8219 4.48986 15.1181 3.93355 15.3156 3.34177ZM9.90398 3.81433C10.4286 3.9276 10.8776 4.2383 11.168 4.68892C11.342 4.95928 11.4464 5.25985 11.4782 5.57239C11.1642 5.74151 10.838 5.90167 10.508 6.06382C9.74354 6.43924 8.94429 6.83183 8.262 7.37344C8.0788 7.23357 7.91994 7.06234 7.79313 6.8656C7.1928 5.93537 7.46111 4.69001 8.39079 4.08975C8.84196 3.79888 9.37947 3.70113 9.90398 3.81433ZM6.57908 13.96C7.54629 13.6053 9.0173 13.2557 10.5747 12.8856C13.5067 12.1886 16.8299 11.3987 18.7292 10.1645C19.7011 9.53296 20.3753 8.77418 20.7259 7.92919C21.3511 8.22191 21.8521 8.76105 22.0478 9.39262C22.2879 10.1674 22.0423 10.9548 21.3377 11.6691C21.3369 11.6699 21.3361 11.6706 21.3354 11.6714C21.3347 11.6721 21.3341 11.6727 21.3334 11.6733C19.9032 13.1193 17.2707 14.3167 15.1549 15.2791C14.8389 15.4228 14.6784 15.794 14.7912 16.1225C14.9204 16.4989 15.3579 16.6887 15.721 16.5235C17.7906 15.5822 20.3316 14.426 21.9683 12.9551C24.032 13.9245 25.7278 16.065 25.4493 18.6491C24.6678 18.5049 23.8391 18.5413 23.0962 18.7892C22.2516 19.071 21.5827 19.5773 21.1185 20.2702C20.4084 19.1843 19.1819 18.4654 17.7907 18.4654C16.4233 18.4654 15.2148 19.1593 14.4993 20.2131C13.784 19.1593 12.5762 18.4654 11.2094 18.4654C9.81819 18.4654 8.59163 19.1844 7.88159 20.2702C7.41716 19.5773 6.74806 19.0708 5.90308 18.789C5.17902 18.5475 4.37341 18.507 3.60964 18.6386C2.99844 15.5429 5.69253 14.2846 6.57908 13.96ZM8.02808 33.6318C6.92463 33.6318 6.36019 32.7587 5.64612 31.0396L1.97197 22.1772C1.75616 21.6574 1.84038 21.1858 2.2223 20.7755C2.49156 20.4862 3.30086 19.8689 4.44984 19.9273C4.79915 19.9451 5.14819 19.9785 5.47078 20.0861C6.18431 20.324 7.06962 20.9363 7.23922 22.5019C7.24079 22.519 9.78018 33.6318 9.78018 33.6318H8.02808V33.6318ZM17.816 33.6318H15.1829V31.4366C15.1829 31.0591 14.8767 30.753 14.4993 30.753C14.1218 30.753 13.8157 31.0591 13.8157 31.4366V33.6318H11.1826L8.60448 22.3664C8.64317 20.9627 9.79693 19.8327 11.2095 19.8327C12.6465 19.8327 13.8156 21.002 13.8156 22.4393V25.3161C13.8156 25.6936 14.1217 25.9996 14.4992 25.9996C14.8767 25.9996 15.1828 25.6936 15.1828 25.3161V22.4392C15.1828 21.0019 16.3527 19.8326 17.7907 19.8326C19.2033 19.8326 20.3571 20.9626 20.3958 22.3664L17.816 33.6318ZM27.0284 22.1774L23.3545 31.0392C22.6403 32.7587 22.0758 33.6318 20.9724 33.6318H19.2186C19.2186 33.6318 21.7597 22.5192 21.7613 22.5017C21.931 20.9364 22.8159 20.3241 23.5291 20.0861C24.2185 19.8562 25.0105 19.8318 25.8083 20.1535C26.1905 20.298 26.5286 20.5082 26.7772 20.7751C27.1595 21.1856 27.244 21.6574 27.0284 22.1774Z" fill="#3A1C17"/>
<path d="M14.4992 27.6937C14.1218 27.6937 13.8156 27.9997 13.8156 28.3773V28.3811C13.8156 28.7586 14.1218 29.0628 14.4992 29.0628C14.8767 29.0628 15.1828 28.7548 15.1828 28.3773C15.1828 27.9997 14.8768 27.6937 14.4992 27.6937Z" fill="#3A1C17"/>
</svg>
