<svg width="35" height="35" viewBox="0 0 35 35" fill="none" xmlns="http://www.w3.org/2000/svg">
<path d="M29.3431 4.90479C26.1801 1.74187 21.9745 0 17.501 0C13.0267 0 8.82041 1.74187 5.65729 4.90472C2.49402 8.06757 0.751953 12.2734 0.751953 16.7472C0.751953 20.6129 2.10096 24.3846 4.55048 27.3675C4.79008 27.6592 5.22081 27.7016 5.51264 27.462C5.80439 27.2224 5.84671 26.7917 5.60711 26.4999C4.16042 24.7382 3.13257 22.6765 2.58269 20.4851C4.01447 20.4152 5.15778 19.2287 5.15778 17.78V17.3014C5.15778 16.72 5.63097 16.2469 6.21257 16.2469C6.79308 16.2469 7.2653 16.72 7.2653 17.3014V22.3433C7.2653 23.8368 8.48039 25.0519 9.97404 25.0519C11.4677 25.0519 12.6828 23.8368 12.6828 22.3433V20.6194C13.8175 22.0274 15.5557 22.93 17.501 22.93C19.4454 22.93 21.1828 22.0276 22.3171 20.62V31.3564C20.7678 31.8662 19.1501 32.1253 17.501 32.1253C14.8989 32.1253 12.3314 31.466 10.0762 30.2187C9.74586 30.0361 9.32989 30.1556 9.1471 30.486C8.96438 30.8164 9.08407 31.2323 9.41445 31.4151C11.8717 32.7741 14.668 33.4925 17.501 33.4925C19.1604 33.4925 20.7912 33.2511 22.3614 32.7759C22.5906 34.0389 23.6977 35 25.026 35C26.5196 35 27.7347 33.785 27.7347 32.2915V30.0019C29.6708 28.5033 31.2791 26.5757 32.3972 24.4059C33.6254 22.0226 34.248 19.4459 34.248 16.7472C34.248 12.2734 32.5061 8.06771 29.3431 4.90479ZM17.501 21.5628C14.8443 21.5628 12.6829 19.4025 12.6829 16.7472C12.6829 14.0908 14.8443 11.9297 17.501 11.9297C20.1567 11.9297 22.3172 14.0908 22.3172 16.7472C22.3172 19.4026 20.1567 21.5628 17.501 21.5628ZM27.7347 28.225V16.5399C27.7347 15.9595 28.2078 15.4873 28.7894 15.4873C29.3699 15.4873 29.8422 15.9595 29.8422 16.5399V17.7801C29.8422 19.2273 30.9832 20.413 32.413 20.485C31.6632 23.4521 30.0379 26.1641 27.7347 28.225ZM32.551 19.1213C31.8112 19.1213 31.2094 18.5196 31.2094 17.78V16.5398C31.2094 15.2055 30.1238 14.12 28.7894 14.12C27.454 14.12 26.3675 15.2055 26.3675 16.5398V32.2915C26.3675 33.031 25.7657 33.6328 25.026 33.6328C24.2862 33.6328 23.6844 33.0311 23.6844 32.2915V16.7472C23.6844 13.3369 20.9106 10.5625 17.501 10.5625C14.0904 10.5625 11.3157 13.3369 11.3157 16.7472V22.3433C11.3157 23.0829 10.7138 23.6847 9.97411 23.6847C9.23439 23.6847 8.63256 23.083 8.63256 22.3433V17.3014C8.63256 15.9661 7.54694 14.8797 6.21264 14.8797C4.87717 14.8797 3.79066 15.9661 3.79066 17.3014V17.78C3.79066 18.5196 3.18883 19.1213 2.44911 19.1213C2.4001 19.1213 2.35163 19.118 2.30364 19.1129C2.18183 18.3334 2.11914 17.5425 2.11914 16.7472C2.11914 8.26663 9.01941 1.36719 17.501 1.36719C25.9815 1.36719 32.8809 8.26663 32.8809 16.7472C32.8809 17.5444 32.8167 18.3351 32.6941 19.1133C32.6468 19.1182 32.5992 19.1213 32.551 19.1213Z" fill="#3A1C17"/>
<path d="M10.4236 10.3067C10.0461 10.3067 9.74002 10.6127 9.74002 10.9903V12.7362C9.74002 13.1137 10.0461 13.4198 10.4236 13.4198C10.8011 13.4198 11.1072 13.1137 11.1072 12.7362V10.9903C11.1072 10.6127 10.8012 10.3067 10.4236 10.3067Z" fill="#3A1C17"/>
<path d="M10.1125 5.06575C9.84562 4.7988 9.4127 4.7988 9.14576 5.06575C8.87881 5.33269 8.87881 5.76554 9.14582 6.03248L10.3803 7.26678C10.5137 7.40029 10.6886 7.46701 10.8636 7.46701C11.0385 7.46701 11.2135 7.40022 11.3469 7.26678C11.6139 6.99984 11.6139 6.56699 11.3469 6.30004L10.1125 5.06575Z" fill="#3A1C17"/>
<path d="M7.30821 9.17225L6.07569 10.4066C5.80896 10.6737 5.8093 11.1066 6.07638 11.3733C6.20988 11.5066 6.38468 11.5732 6.55941 11.5732C6.73454 11.5732 6.90961 11.5063 7.04312 11.3726L8.27564 10.1383C8.54237 9.87116 8.54203 9.43831 8.27495 9.17157C8.00774 8.9047 7.57502 8.90517 7.30821 9.17225Z" fill="#3A1C17"/>
<path d="M18.6695 5.98274C19.047 5.98274 19.3531 5.6767 19.3531 5.29915V3.55524C19.3531 3.17769 19.047 2.87164 18.6695 2.87164C18.292 2.87164 17.9859 3.17769 17.9859 3.55524V5.29915C17.9859 5.6767 18.292 5.98274 18.6695 5.98274Z" fill="#3A1C17"/>
<path d="M20.466 7.71594H18.7199C18.3425 7.71594 18.0363 8.02199 18.0363 8.39953C18.0363 8.77708 18.3425 9.08312 18.7199 9.08312H20.466C20.8435 9.08312 21.1496 8.77708 21.1496 8.39953C21.1496 8.02199 20.8435 7.71594 20.466 7.71594Z" fill="#3A1C17"/>
<path d="M24.1229 6.76944C24.2979 6.76944 24.4728 6.70265 24.6062 6.56921C24.8732 6.30227 24.8732 5.86942 24.6062 5.60247L23.3717 4.36818C23.1049 4.10123 22.6719 4.10123 22.405 4.36818C22.1381 4.63512 22.1381 5.06797 22.4051 5.33491L23.6396 6.56928C23.773 6.70272 23.9479 6.76944 24.1229 6.76944Z" fill="#3A1C17"/>
<path d="M28.2158 9.27966C27.8383 9.27966 27.5322 9.58571 27.5322 9.96326V11.7072C27.5322 12.0847 27.8383 12.3908 28.2158 12.3908C28.5933 12.3908 28.8994 12.0847 28.8994 11.7072V9.96326C28.8994 9.58571 28.5933 9.27966 28.2158 9.27966Z" fill="#3A1C17"/>
<path d="M24.3372 8.55552L23.1027 9.78982C22.8357 10.0568 22.8357 10.4896 23.1027 10.7566C23.2361 10.8901 23.4111 10.9569 23.586 10.9569C23.761 10.9569 23.9359 10.8901 24.0693 10.7567L25.3038 9.5224C25.5708 9.25546 25.5708 8.8226 25.3039 8.55559C25.0372 8.28864 24.6042 8.28858 24.3372 8.55552Z" fill="#3A1C17"/>
<path d="M14.4069 6.08736L13.1744 7.32172C12.9076 7.58887 12.908 8.02172 13.1751 8.28846C13.3085 8.42176 13.4833 8.48834 13.6581 8.48834C13.8332 8.48834 14.0083 8.42142 14.1418 8.28778L15.3743 7.05341C15.641 6.78626 15.6407 6.35341 15.3735 6.08667C15.1065 5.8198 14.6737 5.82027 14.4069 6.08736Z" fill="#3A1C17"/>
<path d="M7.70362 28.607C7.43668 28.3401 7.00478 28.341 6.73784 28.608C6.4709 28.8749 6.47179 29.3088 6.7388 29.5758C6.8723 29.7093 7.04724 29.776 7.22217 29.776C7.3971 29.776 7.57203 29.7093 7.70554 29.5758C7.97248 29.3088 7.97248 28.876 7.70554 28.609L7.70362 28.607Z" fill="#3A1C17"/>
</svg>
