<svg width="22" height="30" viewBox="0 0 22 30" fill="none" xmlns="http://www.w3.org/2000/svg">
<path d="M11 0C5.38593 0 0.818512 4.56736 0.818512 10.1814C0.818512 12.4374 2.14671 15.8684 4.99847 20.9787C6.94445 24.4657 8.88146 27.411 8.96317 27.5351L10.3632 29.6572C10.5044 29.8712 10.7435 30 11 30C11.2564 30 11.4956 29.8712 11.6367 29.6572L13.0367 27.5352C13.1176 27.4126 15.0405 24.4927 17.0015 20.9787C19.8532 15.8686 21.1814 12.4376 21.1814 10.1814C21.1814 4.56736 16.614 0 11 0ZM15.6692 20.2352C13.7356 23.7001 11.8431 26.5741 11.7633 26.6949L11 27.8519L10.2369 26.6952C10.1567 26.5734 8.24964 23.6736 6.33069 20.2352C3.68546 15.4949 2.3442 12.1122 2.3442 10.1814C2.3442 5.40862 6.22713 1.52569 11 1.52569C15.7728 1.52569 19.6557 5.40862 19.6557 10.1814C19.6557 12.1125 18.3145 15.495 15.6692 20.2352Z" fill="white"/>
<path d="M11 4.47278C7.88729 4.47278 5.35495 7.00517 5.35495 10.1178C5.35495 13.2305 7.88729 15.7628 11 15.7628C14.1127 15.7628 16.645 13.2305 16.645 10.1178C16.645 7.00517 14.1127 4.47278 11 4.47278ZM11 14.2372C8.72855 14.2372 6.88064 12.3892 6.88064 10.1178C6.88064 7.84637 8.72855 5.99846 11 5.99846C13.2715 5.99846 15.1194 7.84637 15.1194 10.1178C15.1194 12.3892 13.2715 14.2372 11 14.2372Z" fill="white"/>
</svg>
