<svg width="30" height="19" viewBox="0 0 30 19" fill="none" xmlns="http://www.w3.org/2000/svg">
<path d="M29.7325 16.4964C29.6518 16.3544 29.1531 15.2147 26.7529 12.8722C24.2402 10.4192 24.5777 10.8175 27.6042 6.57608C29.4475 3.99298 30.1844 2.41551 29.9537 1.74114C29.7343 1.09832 28.3786 1.2679 28.3786 1.2679L23.8708 1.2955C23.8708 1.2955 23.537 1.24818 23.2876 1.40395C23.0457 1.55776 22.8901 1.91269 22.8901 1.91269C22.8901 1.91269 22.1757 3.91213 21.2231 5.61185C19.2148 9.19863 18.4104 9.38792 18.0822 9.16511C17.3191 8.64651 17.5103 7.0789 17.5103 5.96678C17.5103 2.49044 18.011 1.04113 16.5334 0.666485C16.0421 0.542259 15.6821 0.459442 14.4276 0.445639C12.8187 0.427892 11.4555 0.451555 10.6848 0.847894C10.171 1.11212 9.77539 1.7017 10.0173 1.73522C10.3154 1.77663 10.9905 1.92649 11.3486 2.43917C11.8118 3.09973 11.7949 4.5865 11.7949 4.5865C11.7949 4.5865 12.0612 8.67806 11.1742 9.1868C10.5648 9.53581 9.73038 8.82398 7.93963 5.56847C7.02268 3.90227 6.32888 2.0586 6.32888 2.0586C6.32888 2.0586 6.19575 1.7155 5.95761 1.53212C5.66884 1.3093 5.26381 1.23832 5.26381 1.23832L0.977243 1.26592C0.977243 1.26592 0.334071 1.28564 0.0978037 1.57945C-0.112212 1.8417 0.0809274 2.38198 0.0809274 2.38198C0.0809274 2.38198 3.43742 10.6381 7.23645 14.8006C10.7223 18.6161 14.6789 18.3657 14.6789 18.3657H16.4715C16.4715 18.3657 17.0134 18.3026 17.2891 17.9891C17.5441 17.7012 17.5347 17.1609 17.5347 17.1609C17.5347 17.1609 17.4991 14.631 18.6167 14.2584C19.7174 13.8916 21.1312 16.7034 22.6295 17.786C23.762 18.6043 24.6227 18.4249 24.6227 18.4249L28.6299 18.3657C28.6299 18.3657 30.7263 18.2296 29.7325 16.4964Z" fill="white"/>
</svg>
