<svg width="80" height="80" viewBox="0 0 80 80" fill="none" xmlns="http://www.w3.org/2000/svg">
<rect width="80" height="80" fill="#E5E5E5"/>
<g clip-path="url(#clip0)">
<rect width="1440" height="4052" transform="translate(-11 -3714)" fill="white"/>
<circle cx="40" cy="40" r="39.5" fill="white" stroke="#3A1C17"/>
<path d="M40.4355 25.1837C40.1917 24.9393 39.796 24.9389 39.5516 25.1826C39.5512 25.183 39.5508 25.1834 39.5505 25.1837L28.3005 36.4337C28.0606 36.682 28.0675 37.0777 28.3158 37.3175C28.558 37.5514 28.942 37.5514 29.1842 37.3175L39.3679 27.1337V54.375C39.3679 54.7201 39.6478 55 39.993 55C40.3381 55 40.618 54.7201 40.618 54.375V27.1337L50.8005 37.3162C51.0403 37.5645 51.4359 37.5714 51.6842 37.3316C51.9325 37.0917 51.9393 36.6961 51.6996 36.4478C51.6945 36.4426 51.6894 36.4375 51.6842 36.4324L40.4355 25.1837Z" fill="#3A1C17"/>
</g>
<defs>
<clipPath id="clip0">
<rect width="1440" height="4052" fill="white" transform="translate(-11 -3714)"/>
</clipPath>
</defs>
</svg>
