<svg width="24" height="30" viewBox="0 0 24 30" fill="none" xmlns="http://www.w3.org/2000/svg">
<path d="M12.4355 0.183733C12.1917 -0.0606611 11.796 -0.0611299 11.5516 0.18262C11.5512 0.182972 11.5508 0.183382 11.5505 0.183733L0.300452 11.4337C0.0606274 11.682 0.0675415 12.0777 0.315803 12.3175C0.55803 12.5514 0.941995 12.5514 1.18416 12.3175L11.3679 2.13373V29.375C11.3679 29.7201 11.6478 30 11.993 30C12.3381 30 12.618 29.7201 12.618 29.375V2.13373L22.8005 12.3162C23.0403 12.5645 23.4359 12.5714 23.6842 12.3316C23.9325 12.0917 23.9393 11.6961 23.6996 11.4478C23.6945 11.4426 23.6894 11.4375 23.6842 11.4324L12.4355 0.183733Z" fill="#3A1C17"/>
</svg>
