<svg width="30" height="30" viewBox="0 0 30 30" fill="none" xmlns="http://www.w3.org/2000/svg">
<path d="M28.2653 22.601L22.598 18.8213C21.8788 18.3455 20.9147 18.5021 20.383 19.1811L18.7322 21.3038C18.52 21.5836 18.1344 21.6647 17.8275 21.4942L17.5134 21.3211C16.4725 20.7536 15.1772 20.0472 12.5675 17.4364C9.95784 14.8256 9.25001 13.5293 8.6826 12.4901L8.51042 12.1761C8.33758 11.8692 8.41719 11.4819 8.69704 11.268L10.8182 9.61754C11.4968 9.08575 11.6536 8.1219 11.1784 7.40243L7.39895 1.73473C6.91192 1.00208 5.9348 0.782145 5.18082 1.23541L2.81096 2.65909C2.06634 3.09689 1.52004 3.80591 1.28661 4.63759C0.43323 7.74721 1.07522 13.1139 8.98033 21.0205C15.2687 27.3088 19.9501 28.9999 23.1677 28.9999C23.9082 29.0031 24.6459 28.9067 25.3608 28.7134C26.1925 28.4803 26.9016 27.9339 27.3391 27.189L28.7641 24.8204C29.218 24.0662 28.9982 23.0884 28.2653 22.601ZM27.9601 24.3416L26.5384 26.7116C26.2242 27.2492 25.7143 27.6445 25.1152 27.8147C22.2447 28.6029 17.2298 27.9501 9.64053 20.3603C2.0513 12.7705 1.3986 7.75563 2.18669 4.88449C2.35707 4.28472 2.75284 3.77403 3.2911 3.45938L5.66096 2.03756C5.98811 1.8407 6.4122 1.93613 6.62354 2.25405L8.67659 5.33661L10.3998 7.92127C10.6061 8.23334 10.5383 8.65162 10.2439 8.88254L8.1223 10.533C7.47665 11.0267 7.29227 11.9201 7.68979 12.6291L7.85826 12.9352C8.45459 14.029 9.19599 15.3897 11.9027 18.0962C14.6095 20.8026 15.9696 21.5441 17.0628 22.1405L17.3694 22.3094C18.0783 22.7069 18.9716 22.5225 19.4653 21.8768L21.1157 19.7551C21.3466 19.4608 21.7647 19.3931 22.0769 19.5992L27.7437 23.3789C28.0618 23.5901 28.1572 24.0144 27.9601 24.3416Z" fill="white" stroke="white" stroke-width="0.5"/>
</svg>
