<svg width="30" height="26" viewBox="0 0 30 26" fill="none" xmlns="http://www.w3.org/2000/svg">
<path d="M0.00636315 18.8173C0.00636315 22.7615 3.20357 25.9587 7.14769 25.9587C11.0919 25.9587 14.2891 22.7615 14.2891 18.8173C14.2891 14.8731 11.0919 11.676 7.14769 11.676C6.33711 11.676 5.5612 11.8173 4.83482 12.0663C6.44193 2.8491 13.6296 -3.09493 6.96665 1.79713C-0.421513 7.22187 -0.00154955 18.599 0.00671745 18.8075C0.00671745 18.8108 0.00636315 18.8137 0.00636315 18.8173Z" fill="#AD1120"/>
<path d="M15.7173 18.8173C15.7173 22.7615 18.9145 25.9587 22.8587 25.9587C26.8028 25.9587 30 22.7615 30 18.8173C30 14.8731 26.8028 11.676 22.8586 11.676C22.048 11.676 21.2721 11.8173 20.5457 12.0663C22.1528 2.8491 29.3404 -3.09493 22.6775 1.79713C15.2894 7.22187 15.7093 18.599 15.7176 18.8075C15.7176 18.8108 15.7173 18.8137 15.7173 18.8173Z" fill="#AD1120"/>
</svg>
