<svg width="36" height="48" viewBox="0 0 36 48" fill="none" xmlns="http://www.w3.org/2000/svg">
<rect width="36" height="48" fill="#E5E5E5"/>
<g clip-path="url(#clip0)">
<rect width="1440" height="4052" transform="translate(-100 -37)" fill="white"/>
<rect x="-100" y="-37" width="1440" height="198" fill="#3A1C17"/>
<path d="M9.40619 40.4062H34.4062V46.6562H9.40619V40.4062Z" fill="#AD1120"/>
<path d="M9.40627 30.3899L7.11799 28.0813C6.81882 27.7785 6.4625 27.538 6.0697 27.3739C5.67689 27.2098 5.25542 27.1252 4.8297 27.1252C4.40399 27.1252 3.98251 27.2098 3.58971 27.3739C3.19691 27.538 2.84059 27.7785 2.54142 28.0813C1.93426 28.6963 1.59381 29.5257 1.59381 30.3899C1.59381 31.2541 1.93426 32.0835 2.54142 32.6985L9.40627 39.6251V30.3899Z" fill="#AD1120"/>
<path d="M21.9063 1.34375C25.2215 1.34375 28.4009 2.66071 30.7451 5.00491C33.0893 7.34912 34.4063 10.5285 34.4063 13.8437V40.4062H9.40625L9.40625 13.8437C9.40625 10.5285 10.7232 7.34912 13.0674 5.00491C15.4116 2.66071 18.591 1.34375 21.9063 1.34375Z" fill="#AD1120"/>
<path d="M31.2812 44.3125H28.1562C27.949 44.3125 27.7503 44.2302 27.6038 44.0837C27.4573 43.9372 27.375 43.7385 27.375 43.5312C27.375 43.324 27.4573 43.1253 27.6038 42.9788C27.7503 42.8323 27.949 42.75 28.1562 42.75H31.2812C31.4885 42.75 31.6872 42.8323 31.8337 42.9788C31.9802 43.1253 32.0625 43.324 32.0625 43.5312C32.0625 43.7385 31.9802 43.9372 31.8337 44.0837C31.6872 44.2302 31.4885 44.3125 31.2812 44.3125Z" fill="#4F83D1"/>
<path d="M25.0312 14.6399C24.6165 14.6187 24.202 14.6846 23.8142 14.8332C23.4265 14.9818 23.0742 15.2099 22.7799 15.5028C22.4855 15.7957 22.2558 16.147 22.1053 16.534C21.9548 16.921 21.887 17.3352 21.9062 17.75C21.8982 16.9251 21.5659 16.1364 20.9812 15.5544C20.3964 14.9724 19.6062 14.6439 18.7812 14.6399C17.9648 14.6707 17.1899 15.0079 16.6109 15.5842C16.0318 16.1605 15.6909 16.9338 15.6562 17.75C15.6562 20.875 16.646 21.8649 17.9999 23.2188L21.9062 27.125L25.8125 23.2188C27.1664 21.8649 28.1562 20.875 28.1562 17.75C28.1146 16.9361 27.7716 16.1668 27.1939 15.5919C26.6162 15.017 25.8453 14.6776 25.0312 14.6399Z" fill="white"/>
<path d="M31.2812 42.75H28.1562C27.949 42.75 27.7503 42.8323 27.6038 42.9788C27.4573 43.1253 27.375 43.324 27.375 43.5312C27.375 43.7385 27.4573 43.9372 27.6038 44.0837C27.7503 44.2302 27.949 44.3125 28.1562 44.3125H31.2812C31.4885 44.3125 31.6872 44.2302 31.8337 44.0837C31.9802 43.9372 32.0625 43.7385 32.0625 43.5312C32.0625 43.324 31.9802 43.1253 31.8337 42.9788C31.6872 42.8323 31.4885 42.75 31.2812 42.75Z" fill="#FEFEFE"/>
<path d="M25.0242 13.8585C24.4154 13.8427 23.8115 13.9713 23.2619 14.2338C22.7124 14.4963 22.2328 14.8852 21.8624 15.3686C21.7621 15.2418 21.6543 15.1211 21.5398 15.0069C21.1782 14.6414 20.7474 14.3516 20.2725 14.1544C19.7977 13.9573 19.2883 13.8566 18.7742 13.8585C17.7513 13.8897 16.7787 14.3095 16.0543 15.0324C15.33 15.7553 14.9082 16.727 14.8749 17.7499C14.8749 21.1983 16.0671 22.3905 17.4476 23.771L21.3539 27.6772C21.5004 27.8237 21.699 27.906 21.9062 27.906C22.1134 27.906 22.312 27.8237 22.4585 27.6772L26.3648 23.771C27.7453 22.3905 28.9375 21.1983 28.9375 17.7499C28.913 16.7216 28.4828 15.7448 27.7406 15.0327C27.021 14.3048 26.0474 13.884 25.0242 13.8585ZM25.2585 22.6663L21.9062 26.0202L18.5523 22.6663C17.2335 21.3436 16.4374 20.5514 16.4374 17.7499C16.4741 17.1405 16.7342 16.566 17.1679 16.1363C17.6016 15.7067 18.1785 15.452 18.7882 15.421H18.807C19.4206 15.4338 20.0056 15.6832 20.4398 16.1171C20.6568 16.33 20.8292 16.5841 20.9468 16.8645C21.0645 17.1448 21.125 17.4458 21.1249 17.7499C21.1249 17.9571 21.2073 18.1558 21.3538 18.3023C21.5003 18.4488 21.699 18.5311 21.9062 18.5311C22.1134 18.5311 22.3121 18.4488 22.4586 18.3023C22.6051 18.1558 22.6874 17.9571 22.6874 17.7499C22.6692 17.4374 22.7177 17.1246 22.8297 16.8323C22.9417 16.54 23.1146 16.2749 23.337 16.0546C23.5593 15.8343 23.8261 15.6639 24.1194 15.5546C24.4127 15.4454 24.7259 15.3998 25.0382 15.421H25.0531C25.6554 15.4493 26.2239 15.7077 26.6414 16.1428C27.088 16.561 27.3516 17.1385 27.375 17.7499C27.375 20.5514 26.5789 21.3436 25.2601 22.6663H25.2585Z" fill="white"/>
<path d="M1.98434 33.2492L8.62496 39.9469L8.62496 46.6562C8.62496 46.8634 8.70727 47.0622 8.85379 47.2087C9.0003 47.3552 9.19901 47.4375 9.40621 47.4375H34.4062C34.6134 47.4375 34.8121 47.3552 34.9586 47.2087C35.1052 47.0622 35.1875 46.8634 35.1875 46.6562V13.8437C35.1875 10.3213 33.7882 6.9432 31.2975 4.45249C28.8068 1.96177 25.4286 0.5625 21.9062 0.5625C18.3838 0.5625 15.0057 1.96177 12.515 4.45249C10.0242 6.9432 8.62496 10.3213 8.62496 13.8437L8.62496 28.4914L7.67262 27.5312C7.30088 27.1551 6.85817 26.8564 6.37016 26.6525C5.88214 26.4487 5.35853 26.3437 4.82965 26.3437C4.30077 26.3437 3.77716 26.4487 3.28914 26.6525C2.80113 26.8564 2.35842 27.1551 1.98668 27.5312C1.23581 28.2932 0.814709 29.32 0.81427 30.3897C0.813832 31.4595 1.23409 32.4866 1.98434 33.2492ZM10.1875 13.8437C10.1875 10.7357 11.4221 7.75503 13.6198 5.55734C15.8175 3.35965 18.7982 2.125 21.9062 2.125C25.0142 2.125 27.9949 3.35965 30.1926 5.55734C32.3903 7.75503 33.625 10.7357 33.625 13.8437V39.625H10.1875L10.1875 13.8437ZM10.1875 41.1875H33.625V45.875H10.1875V41.1875ZM3.09606 28.6312C3.3226 28.4016 3.5925 28.2193 3.89011 28.0948C4.18771 27.9703 4.50707 27.9062 4.82965 27.9062C5.15223 27.9062 5.47159 27.9703 5.76919 28.0948C6.0668 28.2193 6.3367 28.4016 6.56324 28.6312L8.62496 30.7117V37.7266L3.09684 32.1492C2.63512 31.6802 2.37626 31.0485 2.37612 30.3904C2.37597 29.7323 2.63454 29.1004 3.09606 28.6312Z" fill="white"/>
</g>
<defs>
<clipPath id="clip0">
<rect width="1440" height="4052" fill="white" transform="translate(-100 -37)"/>
</clipPath>
</defs>
</svg>
